<?xml version="1.0" encoding="UTF-8"?>
<!DOCTYPE svg PUBLIC "-//W3C//DTD SVG 1.1//EN" "http://www.w3.org/Graphics/SVG/1.1/DTD/svg11.dtd">
<!-- Creator: CorelDRAW 2018 (64-Bit) -->
<svg xmlns="http://www.w3.org/2000/svg" xml:space="preserve" width="545px" height="365px" version="1.1" style="shape-rendering:geometricPrecision; text-rendering:geometricPrecision; image-rendering:optimizeQuality; fill-rule:evenodd; clip-rule:evenodd"
viewBox="0 0 545 365.57"
 xmlns:xlink="http://www.w3.org/1999/xlink">
 <defs>
  <style type="text/css">
   <![CDATA[
    .str0 {stroke:#FEFEFE;stroke-width:0.9;stroke-miterlimit:22.9256}
    .fil1 {fill:#FFED00}
    .fil2 {fill:#EF7F1A}
    .fil0 {fill:#E31E24}
    .fil3 {fill:#BC5020}
    .fil4 {fill:#BC5020}
    .fil5 {fill:#2B2A29;fill-rule:nonzero}
   ]]>
  </style>
 </defs>
 <g id="Слой_x0020_1">
  <metadata id="CorelCorpID_0Corel-Layer"/>
  <g id="_2265120883312">
   <path class="fil0" d="M249.77 1.93c115.92,-9.24 216.41,15.38 257.07,57.96 -52.71,-29.9 -148.12,-45.18 -256,-36.58 -107.88,8.59 -201.02,38.9 -250.33,76.92 36.1,-48.7 133.34,-89.07 249.26,-98.3z"/>
   <circle class="fil1 str0" cx="249.01" cy="32.16" r="21.13"/>
   <path class="fil2" d="M151.92 140.94l30.52 -77.92 10.53 46.59 30.52 -102.18 19.99 77.82 26.31 -59.29 26.83 75.71 11.58 -29.12 24.85 69.01c3.11,8.64 -183.8,6.33 -181.13,-0.62z"/>
   <polygon class="fil3" points="182.44,63.02 186.92,139.49 192.97,109.61 "/>
   <polygon class="fil4" points="223.49,7.43 232.18,143.9 243.48,85.25 "/>
   <polygon class="fil4" points="269.79,25.96 289.39,143.48 296.62,101.67 "/>
   <polygon class="fil4" points="308.2,72.55 333.05,141.56 341.72,141.02 "/>
   <path class="fil0" d="M291.6 162c-115.92,9.23 -216.41,-15.38 -257.07,-57.96 52.71,29.89 148.12,45.17 256,36.58 107.88,-8.6 201.01,-38.9 250.33,-76.92 -36.1,48.7 -133.34,89.06 -249.26,98.3z"/>
   <path class="fil5" d="M54.03 250.81l9.51 2.4c-1.98,7.79 -5.55,13.72 -10.71,17.8 -5.15,4.09 -11.46,6.14 -18.91,6.14 -20.95,0 -36.24,-17.69 -33.63,-37.56 1.65,-12.59 12.34,-36.5 33.78,-36.5 7.17,0 13.19,1.82 18.06,5.47 4.89,3.66 8.29,8.78 10.21,15.38l-9.31 2.2c-16.08,-50.68 -73.65,25.3 -19.9,42.9 5.05,1.66 9.78,-1.53 13.45,-4.58 3.67,-3.07 6.15,-7.61 7.45,-13.65zm62.86 -45.27l14.82 -1.25c0,22.82 2.3,72.86 -27.95,72.86 -39.92,0 -28.29,-41.08 -28.29,-72.86l14.82 7.82 -5.32 33.55c-1.13,7.16 0.87,16.76 7.68,20.58 2.8,1.6 6.24,2.4 10.29,2.4 9.57,0 20.44,-14.06 19.26,-22.98l-5.31 -40.12zm106.4 10.32l3.57 -23.14 4.06 83.23c-21.22,0 -10.11,-45.41 -7.63,-60.09zm26.74 30.84c0,-30.47 11.93,-59.63 46.91,-38.87 0.68,0.4 36.61,65.88 -23.89,65.88 -25.04,0 -23.02,-11.32 -23.02,-27.01zm4.49 -5.46c0,8.62 2.32,15.41 6.96,20.36 4.64,4.96 10.46,7.44 17.46,7.44 45.41,0 14.84,-81.3 -17.16,-50.84 -4.84,4.61 -7.26,12.28 -7.26,23.04zm183.37 34.71c0.08,-0.68 4.71,-1.34 5.71,-2.01 3.82,-2.52 3.68,-46.03 -6.25,-55.48 -7.42,-7.06 -17.22,-2.99 -17.22,-14.17 16.74,4.36 35.01,5.66 56.75,0 0,17.21 -10.87,6.5 -18.31,13.6 -12.41,11.84 -9.4,30.44 -5.76,54.99 0.38,2.63 4.18,1.83 4.36,3.07l-8.23 0 -11.05 0zm68.98 -30.36l-27.62 -41.3 25.57 21.69c3.66,3.1 5.08,4.6 7.32,8.62 2.18,-3.76 3.65,-5.57 7.92,-9.19l24.94 -21.12 -28.62 41.3 -4.45 30.36 -5.06 -30.36z"/>
   <path class="fil5" d="M374.22 250.35l9.51 2.41c-1.99,7.79 -5.56,13.71 -10.71,17.79 -5.15,4.09 -11.46,6.14 -18.92,6.14 -20.94,0 -36.23,-17.69 -33.62,-37.56 1.65,-12.58 12.34,-36.5 33.78,-36.5 7.17,0 13.19,1.82 18.06,5.48 4.89,3.65 8.29,8.77 10.21,15.37l-9.31 2.21c-16.08,-50.69 -73.65,25.29 -19.9,42.9 5.04,1.65 9.78,-1.54 13.45,-4.59 3.66,-3.07 6.15,-7.61 7.45,-13.65z"/>
   <path class="fil5" d="M400.91 215.86l3.56 -23.14 4.07 83.23c-21.22,0 -10.12,-45.41 -7.63,-60.09z"/>
   <path class="fil5" d="M145.7 271.12c-5.79,-1.78 -3.22,-8.64 -3.77,-19.85 -1.31,-26.89 9.14,-67.67 58.04,-43.07 3.41,1.71 2.97,6.86 2.97,10.79 0,5.09 -1.65,9.38 -4.93,12.86 -9.95,10.56 -19.33,1.4 -9.51,10.21 23.05,21.11 28.03,50.26 -7.91,4.25 -1.8,-2.28 -3.4,-3.87 -4.82,-4.78 -0.23,-0.15 -0.52,-0.33 -0.86,-0.51 -2.42,-1.32 -7.14,-3.24 -8.73,-1.73 -20.49,19.5 -0.86,31.83 -20.48,31.83zm9.51 -40.04c88.07,0 0,-57.1 0,0z"/>
   <g>
    <path class="fil5" d="M6.51 336.78c0.7,6.04 4.73,15.56 12.46,18.97 2.78,1.21 5.93,1.83 9.42,1.83 33.5,0 -7.03,-26.71 -15.69,-31.29 -21.58,-11.41 5.19,-23.5 12.65,-23.5 11.99,0 23.63,0.65 24.28,16.88 -5.61,-2.91 -2.97,-11.15 -22.76,-11.15 -4.92,0 -10.18,3.09 -12.42,4.89 -11.05,8.87 43.05,22.61 34.16,44.65 -1.98,4.92 -10.23,5.81 -26.28,6.3 -19.77,0.61 -24.88,-27.26 -15.82,-27.58zm123.11 26.97c-9.25,-35.9 1.02,-58.73 41.43,-61.4l0 7.2c-25.4,1.43 -35.76,8.05 -33.28,19.13 5.84,0 38.49,-3.97 28.82,7.2 -58.88,-6.26 -8.67,27.87 -36.97,27.87zm101.84 -61.06c16.33,3.8 14.64,38.44 17.21,52.47 1.62,-6.55 2.67,-10.29 2.83,-11.32 7.58,-49.87 16.16,-52.77 30.2,-10.4 12.57,37.93 15.26,-34.25 24.71,-27.57 -21.78,132.61 -37.29,-17.03 -43.97,17.52 -3.99,20.63 -8.34,34.02 -13.05,40.36 -13.74,0 -24.26,-62.53 -17.93,-61.06zm150.32 61.06c-4.96,-1.52 -2.76,-7.4 -3.23,-17.01 -1.12,-23.04 7.83,-57.98 49.74,-36.9 2.92,1.46 2.55,5.87 2.55,9.25 0,4.36 -1.42,8.03 -4.24,11.02 -8.52,9.04 -16.56,1.2 -8.14,8.74 19.75,18.09 24.02,43.07 -6.78,3.65 -1.54,-1.96 -2.91,-3.32 -4.13,-4.1 -0.2,-0.13 -0.45,-0.28 -0.73,-0.44 -2.08,-1.13 -6.12,-2.78 -7.49,-1.48 -17.55,16.71 -0.73,27.27 -17.55,27.27zm8.15 -34.3c75.47,0 0,-48.94 0,0z"/>
    <path class="fil5" d="M195.74 364.31c8.29,-70.51 -20.24,-43.75 -20.24,-61.41 14.35,3.73 30,4.85 48.63,0 0,14.75 -9.31,5.57 -15.69,11.65 -11.07,10.57 -7.82,27.41 -4.55,49.76l-8.15 0z"/>
    <path class="fil5" d="M316.63 342.43c0,-26.11 10.23,-51.1 40.2,-33.31 0.58,0.34 31.38,56.46 -20.47,56.46 -21.45,0 -19.73,-9.71 -19.73,-23.15zm3.85 -4.68c0,7.39 1.99,13.21 5.96,17.45 3.98,4.25 8.96,6.38 14.97,6.38 38.91,0 12.71,-69.67 -14.71,-43.57 -4.14,3.95 -6.22,10.52 -6.22,19.74z"/>
    <path class="fil5" d="M65.25 342.43c0,-26.11 10.23,-51.1 40.2,-33.31 0.58,0.34 31.38,56.46 -20.47,56.46 -21.45,0 -19.73,-9.71 -19.73,-23.15zm3.85 -4.68c0,7.39 1.99,13.21 5.96,17.45 3.98,4.25 8.97,6.38 14.97,6.38 38.91,0 12.71,-69.67 -14.71,-43.57 -4.14,3.95 -6.22,10.52 -6.22,19.74z"/>
    <path class="fil5" d="M498.46 336.47c0.7,6.05 4.73,15.57 12.46,18.98 2.79,1.21 5.93,1.83 9.42,1.83 33.5,0 -7.03,-26.71 -15.69,-31.29 -21.57,-11.41 5.19,-23.5 12.65,-23.5 11.99,0 23.64,0.65 24.28,16.88 -5.61,-2.91 -2.97,-11.15 -22.76,-11.15 -4.91,0 -10.18,3.09 -12.42,4.89 -11.05,8.87 43.05,22.61 34.16,44.65 -1.98,4.92 -10.23,5.81 -26.28,6.3 -19.76,0.61 -24.88,-27.26 -15.82,-27.59z"/>
    <path class="fil5" d="M452.81 331.4c1.97,-1.97 3.62,-4.54 5.26,-7.03 9.98,-15.11 47.17,-35.09 6.48,5.31 -4.19,4.17 -5.69,3.49 -1.27,6.8 0.7,0.52 1.38,1.02 2.05,1.5 6.88,4.92 12.09,7.6 15.91,11.1 6.5,5.95 8.89,11.77 7.87,12.32 -6.07,3.31 -36.23,-25.8 -36.32,-17.8 -0.38,30.99 -8.01,17.92 -8.42,-4.16 -0.21,-10.95 1.19,-23.16 2.9,-30.07 1.26,-5.1 3.28,-8.08 4.52,-0.53 0.69,4.15 1.02,10.81 1.02,22.56z"/>
   </g>
   <path class="fil0" d="M249.77 1.93c115.92,-9.24 216.41,15.38 257.07,57.96 -52.71,-29.9 -148.12,-45.18 -256,-36.58 -107.88,8.59 -201.02,38.9 -250.33,76.92 36.1,-48.7 133.34,-89.07 249.26,-98.3z"/>
   <circle class="fil1 str0" cx="249.01" cy="32.16" r="21.13"/>
   <path class="fil2" d="M151.92 140.94l30.52 -77.92 10.53 46.59 30.52 -102.18 19.99 77.82 26.31 -59.29 26.83 75.71 11.58 -29.12 24.85 69.01c3.11,8.64 -183.8,6.33 -181.13,-0.62z"/>
   <polygon class="fil3" points="182.44,63.02 186.92,139.49 192.97,109.61 "/>
   <polygon class="fil4" points="223.49,7.43 232.18,143.9 243.48,85.25 "/>
   <polygon class="fil4" points="269.79,25.96 289.39,143.48 296.62,101.67 "/>
   <polygon class="fil4" points="308.2,72.55 333.05,141.56 341.72,141.02 "/>
   <path class="fil0" d="M291.6 162c-115.92,9.23 -216.41,-15.38 -257.07,-57.96 52.71,29.89 148.12,45.17 256,36.58 107.88,-8.6 201.01,-38.9 250.33,-76.92 -36.1,48.7 -133.34,89.06 -249.26,98.3z"/>
   <path class="fil5" d="M54.03 250.81l9.51 2.4c-1.98,7.79 -5.55,13.72 -10.71,17.8 -5.15,4.09 -11.46,6.14 -18.91,6.14 -20.95,0 -36.24,-17.69 -33.63,-37.56 1.65,-12.59 12.34,-36.5 33.78,-36.5 7.17,0 13.19,1.82 18.06,5.47 4.89,3.66 8.29,8.78 10.21,15.38l-9.31 2.2c-16.08,-50.68 -73.65,25.3 -19.9,42.9 5.05,1.66 9.78,-1.53 13.45,-4.58 3.67,-3.07 6.15,-7.61 7.45,-13.65zm62.86 -45.27l14.82 -1.25c0,22.82 2.3,72.86 -27.95,72.86 -39.92,0 -28.29,-41.08 -28.29,-72.86l14.82 7.82 -5.32 33.55c-1.13,7.16 0.87,16.76 7.68,20.58 2.8,1.6 6.24,2.4 10.29,2.4 9.57,0 20.44,-14.06 19.26,-22.98l-5.31 -40.12zm106.4 10.32l3.57 -23.14 4.06 83.23c-21.22,0 -10.11,-45.41 -7.63,-60.09zm26.74 30.84c0,-30.47 11.93,-59.63 46.91,-38.87 0.68,0.4 36.61,65.88 -23.89,65.88 -25.04,0 -23.02,-11.32 -23.02,-27.01zm4.49 -5.46c0,8.62 2.32,15.41 6.96,20.36 4.64,4.96 10.46,7.44 17.46,7.44 45.41,0 14.84,-81.3 -17.16,-50.84 -4.84,4.61 -7.26,12.28 -7.26,23.04zm183.37 34.71c0.08,-0.68 4.71,-1.34 5.71,-2.01 3.82,-2.52 3.68,-46.03 -6.25,-55.48 -7.42,-7.06 -17.22,-2.99 -17.22,-14.17 16.74,4.36 35.01,5.66 56.75,0 0,17.21 -10.87,6.5 -18.31,13.6 -12.41,11.84 -9.4,30.44 -5.76,54.99 0.38,2.63 4.18,1.83 4.36,3.07l-8.23 0 -11.05 0zm68.98 -30.36l-27.62 -41.3 25.57 21.69c3.66,3.1 5.08,4.6 7.32,8.62 2.18,-3.76 3.65,-5.57 7.92,-9.19l24.94 -21.12 -28.62 41.3 -4.45 30.36 -5.06 -30.36z"/>
   <path class="fil5" d="M374.22 250.35l9.51 2.41c-1.99,7.79 -5.56,13.71 -10.71,17.79 -5.15,4.09 -11.46,6.14 -18.92,6.14 -20.94,0 -36.23,-17.69 -33.62,-37.56 1.65,-12.58 12.34,-36.5 33.78,-36.5 7.17,0 13.19,1.82 18.06,5.48 4.89,3.65 8.29,8.77 10.21,15.37l-9.31 2.21c-16.08,-50.69 -73.65,25.29 -19.9,42.9 5.04,1.65 9.78,-1.54 13.45,-4.59 3.66,-3.07 6.15,-7.61 7.45,-13.65z"/>
   <path class="fil5" d="M400.91 215.86l3.56 -23.14 4.07 83.23c-21.22,0 -10.12,-45.41 -7.63,-60.09z"/>
   <path class="fil5" d="M145.7 271.12c-5.79,-1.78 -3.22,-8.64 -3.77,-19.85 -1.31,-26.89 9.14,-67.67 58.04,-43.07 3.41,1.71 2.97,6.86 2.97,10.79 0,5.09 -1.65,9.38 -4.93,12.86 -9.95,10.56 -19.33,1.4 -9.51,10.21 23.05,21.11 28.03,50.26 -7.91,4.25 -1.8,-2.28 -3.4,-3.87 -4.82,-4.78 -0.23,-0.15 -0.52,-0.33 -0.86,-0.51 -2.42,-1.32 -7.14,-3.24 -8.73,-1.73 -20.49,19.5 -0.86,31.83 -20.48,31.83zm9.51 -40.04c88.07,0 0,-57.1 0,0z"/>
   <g>
    <path class="fil5" d="M6.51 336.78c0.7,6.04 4.73,15.56 12.46,18.97 2.78,1.21 5.93,1.83 9.42,1.83 33.5,0 -7.03,-26.71 -15.69,-31.29 -21.58,-11.41 5.19,-23.5 12.65,-23.5 11.99,0 23.63,0.65 24.28,16.88 -5.61,-2.91 -2.97,-11.15 -22.76,-11.15 -4.92,0 -10.18,3.09 -12.42,4.89 -11.05,8.87 43.05,22.61 34.16,44.65 -1.98,4.92 -10.23,5.81 -26.28,6.3 -19.77,0.61 -24.88,-27.26 -15.82,-27.58zm123.11 26.97c-9.25,-35.9 1.02,-58.73 41.43,-61.4l0 7.2c-25.4,1.43 -35.76,8.05 -33.28,19.13 5.84,0 38.49,-3.97 28.82,7.2 -58.88,-6.26 -8.67,27.87 -36.97,27.87zm101.84 -61.06c16.33,3.8 14.64,38.44 17.21,52.47 1.62,-6.55 2.67,-10.29 2.83,-11.32 7.58,-49.87 16.16,-52.77 30.2,-10.4 12.57,37.93 15.26,-34.25 24.71,-27.57 -21.78,132.61 -37.29,-17.03 -43.97,17.52 -3.99,20.63 -8.34,34.02 -13.05,40.36 -13.74,0 -24.26,-62.53 -17.93,-61.06zm150.32 61.06c-4.96,-1.52 -2.76,-7.4 -3.23,-17.01 -1.12,-23.04 7.83,-57.98 49.74,-36.9 2.92,1.46 2.55,5.87 2.55,9.25 0,4.36 -1.42,8.03 -4.24,11.02 -8.52,9.04 -16.56,1.2 -8.14,8.74 19.75,18.09 24.02,43.07 -6.78,3.65 -1.54,-1.96 -2.91,-3.32 -4.13,-4.1 -0.2,-0.13 -0.45,-0.28 -0.73,-0.44 -2.08,-1.13 -6.12,-2.78 -7.49,-1.48 -17.55,16.71 -0.73,27.27 -17.55,27.27zm8.15 -34.3c75.47,0 0,-48.94 0,0z"/>
    <path class="fil5" d="M195.74 364.31c8.29,-70.51 -20.24,-43.75 -20.24,-61.41 14.35,3.73 30,4.85 48.63,0 0,14.75 -9.31,5.57 -15.69,11.65 -11.07,10.57 -7.82,27.41 -4.55,49.76l-8.15 0z"/>
    <path class="fil5" d="M316.63 342.43c0,-26.11 10.23,-51.1 40.2,-33.31 0.58,0.34 31.38,56.46 -20.47,56.46 -21.45,0 -19.73,-9.71 -19.73,-23.15zm3.85 -4.68c0,7.39 1.99,13.21 5.96,17.45 3.98,4.25 8.96,6.38 14.97,6.38 38.91,0 12.71,-69.67 -14.71,-43.57 -4.14,3.95 -6.22,10.52 -6.22,19.74z"/>
    <path class="fil5" d="M65.25 342.43c0,-26.11 10.23,-51.1 40.2,-33.31 0.58,0.34 31.38,56.46 -20.47,56.46 -21.45,0 -19.73,-9.71 -19.73,-23.15zm3.85 -4.68c0,7.39 1.99,13.21 5.96,17.45 3.98,4.25 8.97,6.38 14.97,6.38 38.91,0 12.71,-69.67 -14.71,-43.57 -4.14,3.95 -6.22,10.52 -6.22,19.74z"/>
    <path class="fil5" d="M498.46 336.47c0.7,6.05 4.73,15.57 12.46,18.98 2.79,1.21 5.93,1.83 9.42,1.83 33.5,0 -7.03,-26.71 -15.69,-31.29 -21.57,-11.41 5.19,-23.5 12.65,-23.5 11.99,0 23.64,0.65 24.28,16.88 -5.61,-2.91 -2.97,-11.15 -22.76,-11.15 -4.91,0 -10.18,3.09 -12.42,4.89 -11.05,8.87 43.05,22.61 34.16,44.65 -1.98,4.92 -10.23,5.81 -26.28,6.3 -19.76,0.61 -24.88,-27.26 -15.82,-27.59z"/>
    <path class="fil5" d="M452.81 331.4c1.97,-1.97 3.62,-4.54 5.26,-7.03 9.98,-15.11 47.17,-35.09 6.48,5.31 -4.19,4.17 -5.69,3.49 -1.27,6.8 0.7,0.52 1.38,1.02 2.05,1.5 6.88,4.92 12.09,7.6 15.91,11.1 6.5,5.95 8.89,11.77 7.87,12.32 -6.07,3.31 -36.23,-25.8 -36.32,-17.8 -0.38,30.99 -8.01,17.92 -8.42,-4.16 -0.21,-10.95 1.19,-23.16 2.9,-30.07 1.26,-5.1 3.28,-8.08 4.52,-0.53 0.69,4.15 1.02,10.81 1.02,22.56z"/>
   </g>
  </g>
 </g>
</svg>
