<?xml version="1.0" encoding="UTF-8"?>
<!DOCTYPE svg PUBLIC "-//W3C//DTD SVG 1.1//EN" "http://www.w3.org/Graphics/SVG/1.1/DTD/svg11.dtd">
<!-- Creator: CorelDRAW 2018 (64-Bit) -->
<svg xmlns="http://www.w3.org/2000/svg" xml:space="preserve" width="64px" height="64px" version="1.1" style="shape-rendering:geometricPrecision; text-rendering:geometricPrecision; image-rendering:optimizeQuality; fill-rule:evenodd; clip-rule:evenodd"
viewBox="0 0 64 64"
 xmlns:xlink="http://www.w3.org/1999/xlink">
 <defs>
  <style type="text/css">
   <![CDATA[
    .fil0 {fill:white}
   ]]>
  </style>
 </defs>
 <g id="Слой_x0020_1">
  <metadata id="CorelCorpID_0Corel-Layer"/>
  <g id="_2424296589056">
   <path class="fil0" d="M22.01 0.59c-5.43,0.25 -8.9,0.37 -13.07,2.74 -3.07,1.75 -5.64,4.77 -7.03,8.7 -1.48,4.19 -1.37,9.62 -1.4,14.37 -0.03,5.21 -0.09,10.53 0.06,15.74 0.14,4.96 0.59,9.28 2.76,12.94 5.03,8.48 13.99,8.35 23.11,8.4 5.15,0.03 10.59,0.16 15.72,-0.06 5.11,-0.22 9.14,-0.49 12.95,-2.78 8.56,-5.12 8.33,-14.12 8.38,-23.1 0.02,-5.19 0.1,-10.54 -0.07,-15.72 -0.17,-5.12 -0.53,-9.06 -2.77,-12.92 -4.87,-8.41 -14.11,-8.34 -23.07,-8.38 -5.09,-0.03 -10.53,-0.16 -15.57,0.07zm-1.95 5.74c-4.5,0.26 -7.08,0.7 -9.83,3.04 -5.06,4.32 -4.06,14.66 -4.06,21.78 -0.01,4.27 -0.04,8.54 0.14,12.79 0.65,15.59 11.51,13.88 24.72,13.9 4.27,0 8.53,0.03 12.78,-0.14 8.5,-0.33 13.14,-3.56 13.77,-11.95 0.39,-5.06 0.33,-20.42 0.11,-25.75 -0.36,-8.48 -3.72,-12.99 -12.07,-13.59 -4.7,-0.33 -20.8,-0.35 -25.56,-0.08z"/>
   <path class="fil0" d="M29.85 15.99c-8.14,1.17 -15.19,8.48 -13.89,18.09 1.09,8.14 8.59,15.28 18.18,13.96 8.13,-1.12 15.05,-8.49 13.91,-18.02 -0.99,-8.15 -8.64,-15.4 -18.2,-14.03zm0.9 5.61c-5.43,0.74 -9.99,5.42 -9.16,11.82 0.67,5.23 5.56,9.84 11.87,8.99 5.22,-0.71 9.79,-5.63 8.94,-11.81 -0.71,-5.21 -5.57,-9.82 -11.65,-9z"/>
   <path class="fil0" d="M47.76 11.6c-4.81,1.52 -2.63,8.62 2.2,7.2 4.6,-1.35 2.62,-8.72 -2.2,-7.2z"/>
  </g>
 </g>
</svg>
