<?xml version="1.0" encoding="UTF-8"?>
<!DOCTYPE svg PUBLIC "-//W3C//DTD SVG 1.1//EN" "http://www.w3.org/Graphics/SVG/1.1/DTD/svg11.dtd">
<!-- Creator: CorelDRAW 2018 (64-Bit) -->
<svg xmlns="http://www.w3.org/2000/svg" xml:space="preserve" width="64px" height="64px" version="1.1" style="shape-rendering:geometricPrecision; text-rendering:geometricPrecision; image-rendering:optimizeQuality; fill-rule:evenodd; clip-rule:evenodd"
viewBox="0 0 64 64"
 xmlns:xlink="http://www.w3.org/1999/xlink">
 <defs>
  <style type="text/css">
   <![CDATA[
    .str0 {stroke:white;stroke-width:2.36;stroke-miterlimit:22.9256}
    .fil0 {fill:whitesmoke}
   ]]>
  </style>
 </defs>
 <g id="Слой_x0020_1">
  <metadata id="CorelCorpID_0Corel-Layer"/>
  <path class="fil0 str0" d="M31.69 22.74c-7.83,2.09 -16.69,-3.43 -22.68,-7.64 -0.52,-0.37 -1.04,-0.55 -1.61,-0.94 -0.55,-0.38 -0.74,-0.65 -1.4,-1.14 -1.16,-0.85 -1.46,-1.53 -2.89,-2.33 -0.99,5.49 -0.41,6.87 2.56,11.79 0.52,0.87 2.07,2.01 1.63,3.01 -1.06,1.83 -4.05,-0.11 -5.19,-0.4 0.07,2.08 2.43,5.47 3.79,6.91 1.99,2.09 3.84,2.55 6.49,4.09 0.3,3.07 -5.27,2.98 -3.89,4.74 1.32,1.68 9.5,6.04 9.55,6.2 0.87,3.1 -11.15,6.84 -13.18,7.58 0.26,0.33 -0.09,0.07 0.37,0.32l4.59 1.18c1.82,0.38 3.56,0.78 5.47,0.97 9.27,0.89 13.14,0.3 21.25,-3.57 7.8,-3.71 13.75,-13.28 17.92,-20.71 1.88,-3.33 2.54,-5.61 3.2,-9.79 0.37,-2.31 -0.17,-3.53 1.29,-5.04 0.66,-0.68 2.61,-2.47 2.93,-3.67 -1.48,0.26 -6.42,2.62 -3.35,-1.59 0.96,-0.9 1.18,-1.92 1.94,-2.81 -0.45,0.15 -0.37,0.2 -0.94,0.39l-3.82 1.01c-2.96,0.66 -2.38,-0.49 -4.31,-1.89 -2.76,-2.01 -6.1,-3.64 -9.94,-2.57 -3.89,1.09 -5.75,3.03 -7.7,5.25 -3.37,3.85 -1.56,7.5 -2.08,10.65z"/>
 </g>
</svg>
