<?xml version="1.0" encoding="UTF-8"?>
<!DOCTYPE svg PUBLIC "-//W3C//DTD SVG 1.1//EN" "http://www.w3.org/Graphics/SVG/1.1/DTD/svg11.dtd">
<!-- Creator: CorelDRAW 2018 (64-Bit) -->
<svg xmlns="http://www.w3.org/2000/svg" xml:space="preserve" width="64px" height="64px" version="1.1" style="shape-rendering:geometricPrecision; text-rendering:geometricPrecision; image-rendering:optimizeQuality; fill-rule:evenodd; clip-rule:evenodd"
viewBox="0 0 64 64"
 xmlns:xlink="http://www.w3.org/1999/xlink">
 <defs>
  <style type="text/css">
   <![CDATA[
    .str0 {stroke:white;stroke-width:2.36;stroke-miterlimit:22.9256}
    .fil0 {fill:white}
   ]]>
  </style>
 </defs>
 <g id="Слой_x0020_1">
  <metadata id="CorelCorpID_0Corel-Layer"/>
  <path id="Logo" class="fil0 str0" d="M61.11 16.31c0.43,-1.43 0,-2.43 -2.01,-2.43l-6.67 0c-1.72,0 -2.49,0.9 -2.91,1.9 0,0 -3.39,8.3 -8.21,13.64 -1.57,1.58 -2.24,2.06 -3.1,2.06 -0.43,0 -1.05,-0.48 -1.05,-1.91l0 -13.26c0,-1.72 -0.47,-2.43 -1.9,-2.43l-10.5 0c-1.05,0 -1.72,0.81 -1.72,1.52 0,1.62 2.39,2 2.68,6.49l0 9.82c0,2.15 -0.39,2.53 -1.24,2.53 -2.25,0 -7.78,-8.3 -11.02,-17.84 -0.67,-1.76 -1.29,-2.52 -3.01,-2.52l-6.67 0c-1.91,0 -2.29,0.9 -2.29,1.9 0,1.77 2.24,10.54 10.54,22.13 5.53,7.92 13.3,12.21 20.36,12.21 4.25,0 4.77,-0.95 4.77,-2.57l0 -6.01c0,-1.91 0.38,-2.29 1.77,-2.29 1,0 2.67,0.48 6.63,4.29 4.53,4.53 5.29,6.58 7.82,6.58l6.68 0c1.9,0 2.86,-0.95 2.29,-2.81 -0.62,-1.86 -2.77,-4.58 -5.63,-7.82 -1.58,-1.86 -3.91,-3.82 -4.58,-4.82 -1,-1.29 -0.72,-1.86 0,-2.96 0,-0.04 8.15,-11.49 8.97,-15.4l0 0z"/>
 </g>
</svg>
